<svg xmlns="http://www.w3.org/2000/svg" width="430" height="430" fill="none" viewBox="0 0 430 430"><g clip-path="url(#sG-QWdD3tza)"><path fill="#ceddf5" d="m141.5 141.498 11.46 36.208L312.753 337.5l24.747-24.751-159.791-159.791z"/><path fill="#ceddf5" d="m141.5 141.498 11.46 36.208L313.753 338.5l11.747-13.002z" opacity=".5" style="mix-blend-mode:multiply"/><path fill="#eeca66" d="m57.972 57.972 59.715 20.073 50.59-37.543-.637 62.995 51.338 36.512-60.109 18.86-18.86 60.109-36.512-51.338-62.995.637 37.543-50.59z"/><path fill="#eeca66" d="m103.497 167.64 36.512 51.338 18.86-60.108L57.972 57.973l20.073 59.714-37.543 50.59z" opacity=".5" style="mix-blend-mode:multiply"/><path fill="#3a3347" d="m356.726 381.472 24.749-24.749-45.962-45.962-24.749 24.748z"/><path fill="#3a3347" d="m310.764 335.51 45.963 45.962 12.374-12.374-45.962-45.962z" opacity=".5" style="mix-blend-mode:multiply"/><path stroke="#121331" stroke-linecap="round" stroke-linejoin="round" stroke-width="10.5" d="m152.96 177.707 203.766 203.766 24.749-24.749-203.766-203.766"/><path stroke="#121331" stroke-linejoin="round" stroke-width="10.5" d="m335.512 310.763-24.748 24.748M57.972 57.972l59.715 20.073 50.59-37.543-.637 62.995 51.338 36.512-60.109 18.86-18.86 60.109-36.512-51.338-62.995.637 37.543-50.59z"/><path stroke="#121331" stroke-linecap="round" stroke-linejoin="round" stroke-width="10.5" d="M117.5 335v-35M100 317.5h35M327.5 215v-35M310 197.5h35M277.5 100V65M260 82.5h35"/></g><defs><clipPath id="sG-QWdD3tza"><path fill="#fff" d="M0 0h430v430H0z"/></clipPath></defs></svg>