<svg xmlns="http://www.w3.org/2000/svg" width="430" height="430" fill="none" viewBox="0 0 430 430"><path fill="#ceddf5" d="M60 70h310v200H60z"/><path fill="#ceddf5" d="M65 75h20v190H65z" opacity=".5" style="mix-blend-mode:multiply"/><path fill="#ebe6ef" fill-rule="evenodd" d="M45 265v30c0 11.046 8.954 20 20 20h300c11.046 0 20-8.954 20-20v-30z" clip-rule="evenodd"/><path fill="#ebe6ef" d="M45 295v-30h20v30c0 11.046 8.954 20 20 20H65c-11.046 0-20-8.954-20-20" opacity=".5" style="mix-blend-mode:multiply"/><path fill="#3a3347" fill-rule="evenodd" d="M45 75v190h340V75c0-11.046-8.954-20-20-20H65c-11.046 0-20 8.954-20 20m320 190V75H65v190z" clip-rule="evenodd"/><path fill="#3a3347" d="M45 265V75c0-11.046 8.954-20 20-20h20c-11.046 0-20 8.954-20 20v190z" opacity=".5" style="mix-blend-mode:multiply"/><path fill="#ebe6ef" d="m245 315 5 60h-70l5-60z"/><path fill="#ebe6ef" d="M198.75 330 195 375h-15l5-60h60l1.25 15z" opacity=".6" style="mix-blend-mode:multiply"/><path stroke="#121331" stroke-linecap="round" stroke-linejoin="round" stroke-width="7" d="m185 315-5 60m65-60 5 60"/><path stroke="#121331" stroke-linecap="round" stroke-width="7" d="M285 375H145"/><circle cx="215" cy="290" r="10" fill="#121331"/><path stroke="#121331" stroke-linecap="round" stroke-width="7" d="M385 265H45"/><rect width="340" height="260" x="45" y="55" stroke="#121331" stroke-width="7" rx="20"/></svg>