<svg xmlns="http://www.w3.org/2000/svg" width="430" height="430" fill="none" viewBox="0 0 430 430"><path fill="#ee6d66" d="M101.115 285.77v-15.59a15.6 15.6 0 0 1 4.57-11.037 15.6 15.6 0 0 1 11.04-4.563 15.6 15.6 0 0 1 15.6 15.6v15.59m165.4 0v-15.59a15.595 15.595 0 0 1 9.622-14.412 15.59 15.59 0 0 1 21.558 14.412v15.59"/><path fill="#3a3347" d="M349.775 285.77h-85.28v-23.24a12.75 12.75 0 0 0-12.77-12.75h-73.46a12.74 12.74 0 0 0-9.022 3.731 12.75 12.75 0 0 0-3.738 9.019v23.24h-85.28a12 12 0 0 0-12 12v65.35a12 12 0 0 0 12 12h269.55a12 12 0 0 0 12-12v-65.35c0-3.183-1.264-6.235-3.515-8.485a12 12 0 0 0-8.485-3.515"/><path fill="#ceddf5" d="M230.645 147.76h-31.28v102.02h31.28z"/><path fill="#ceddf5" d="M215.005 147.76h-15.64v102.02h15.64z" opacity=".5" style="mix-blend-mode:multiply"/><path fill="#ee6d66" d="M215.005 150.38c26.372 0 47.75-21.379 47.75-47.75 0-26.372-21.378-47.75-47.75-47.75s-47.75 21.378-47.75 47.75c0 26.371 21.378 47.75 47.75 47.75"/><path fill="#ee6d66" d="M182.885 102.63a47.76 47.76 0 0 1 39.94-47.1 47.748 47.748 0 0 0-53.007 62.626 47.75 47.75 0 0 0 45.187 32.224 49 49 0 0 0 7.82-.64 47.78 47.78 0 0 1-39.94-47.11m-58.36 154.07a15.568 15.568 0 0 0-23.41 13.48v15.59h15.61v-15.59a15.58 15.58 0 0 1 7.8-13.48m196.59 0a15.56 15.56 0 0 0-15.594-.026 15.56 15.56 0 0 0-7.796 13.506v15.59h15.64v-15.59a15.58 15.58 0 0 1 7.75-13.48" opacity=".5" style="mix-blend-mode:multiply"/><path fill="#3a3347" d="M83.865 363.12v-65.35a12 12 0 0 1 12-12h-15.64a12 12 0 0 0-12 12v65.35a12 12 0 0 0 12 12h15.64a12 12 0 0 1-12-12m97.28-100.59a12.74 12.74 0 0 1 3.738-9.019 12.74 12.74 0 0 1 9.022-3.731h-15.64a12.74 12.74 0 0 0-9.022 3.731 12.75 12.75 0 0 0-3.738 9.019v23.24h15.64z" opacity=".5" style="mix-blend-mode:multiply"/><path stroke="#121331" stroke-linecap="round" stroke-linejoin="round" stroke-width="10.5" d="M165.505 285.77v-23.24a12.74 12.74 0 0 1 3.738-9.019 12.74 12.74 0 0 1 9.022-3.731h73.46a12.75 12.75 0 0 1 12.75 12.75v23.24m-163.36 0v-15.59a15.6 15.6 0 0 1 4.57-11.037 15.6 15.6 0 0 1 11.04-4.563v0a15.6 15.6 0 0 1 15.6 15.6v15.59m165.4 0v-15.59a15.595 15.595 0 0 1 9.622-14.412 15.6 15.6 0 0 1 5.968-1.188v0a15.59 15.59 0 0 1 15.59 15.6v15.59"/><path stroke="#121331" stroke-linecap="round" stroke-linejoin="round" stroke-width="10.5" d="M349.775 285.77H80.225c-6.627 0-12 5.373-12 12v65.35c0 6.627 5.373 12 12 12h269.55c6.627 0 12-5.373 12-12v-65.35c0-6.627-5.373-12-12-12m-119.13-35.99V147.76m-31.28 102.02V147.76m15.64 2.62c26.372 0 47.75-21.379 47.75-47.75 0-26.372-21.378-47.75-47.75-47.75s-47.75 21.378-47.75 47.75c0 26.371 21.378 47.75 47.75 47.75"/></svg>