<svg xmlns="http://www.w3.org/2000/svg" width="430" height="430" fill="none" viewBox="0 0 430 430"><path fill="#eeca66" d="M232.19 169.848c9.436-18.208 19.135-25.099 33.11-33.11-12.954-6.92-25.205-16.746-33.11-33.11-11.11 21.213-22.851 26.062-33.11 33.11 20.596 9.798 28.253 25.367 33.11 33.11"/><path fill="#eeca66" d="M199.08 136.738c20.596 9.798 28.253 25.367 33.11 33.11v-66.22c-11.11 21.213-22.851 26.062-33.11 33.11" opacity=".5" style="mix-blend-mode:multiply"/><path fill="#eeca66" d="M287.569 96.918c3.322-6.193 8.388-13.048 17.27-17.27-4.709-2.534-13.352-7.998-17.27-17.27-5.52 10.961-12.375 14.24-17.27 17.27 4.399 1.838 13.538 8.792 17.27 17.27"/><path fill="#eeca66" d="M270.299 79.648c4.399 1.838 13.538 8.792 17.27 17.27v-34.54c-5.52 10.961-12.375 14.24-17.27 17.27" opacity=".5" style="mix-blend-mode:multiply"/><path fill="#eeca66" d="M164.699 81.164c3.892-7.257 9.829-15.29 20.236-20.236-5.518-2.969-15.645-9.371-20.236-20.236-6.487 12.927-15.291 17.282-20.236 20.236 5.154 2.153 15.864 10.301 20.236 20.236"/><path fill="#eeca66" d="M144.463 60.928c5.154 2.153 15.864 10.301 20.236 20.236V40.692c-6.487 12.927-15.291 17.282-20.236 20.236" opacity=".5" style="mix-blend-mode:multiply"/><path fill="#f9c9c0" d="m56.55 333.712-.5 7.4-4.6 35.3 102.499 13.4 4.6-35.3s11.4-18.3 15.2-47.6c1.4-10.5 2.7-20.5 3.8-29l-72.1-58.6-17.7 24.9-32.5 17.3zm5.899-99.001-5-71.4c-.5-7.6 5.2-14.1 12.7-14.7h1.1c8 0 14.8 6.2 15.4 14.3l4.7 66.3"/><path fill="#f9c9c0" d="m123.049 257.511 2.7-12.7 5.2-24.7 12.3-58.9c.3-1.1.4-2.2.4-3.3 0-6.6-4.6-12.6-11.3-14.2-7.8-1.8-15.7 3.1-17.5 10.9l-17.4 73.2"/><path fill="#f9c9c0" d="m121.248 266.111 4.9-37.2c1-7.5 7.9-12.8 15.4-11.8 8.4 1.1 14.4 8.8 13.3 17.3l-4.7 35.5c-1.1 8-8.5 13.7-16.5 12.5-7.9-1.1-13.4-8.4-12.4-16.3"/><path fill="#f9c9c0" d="M162.749 286.111c-8-.9-13.7-8.2-12.7-16.1l3.8-30.7c1-8 8.4-13.6 16.3-12.6 8 1 13.6 8.4 12.6 16.3l-4 30.6c-1 7.8-8.1 13.4-16 12.5m-105.5 46.8c-6.2-5.4-9.1-13.8-13.1-20.8-3.8-6.6-7.5-13.1-11.3-19.7-6.7-11.6-6.8-25.9-.4-37.7 5.5-10.1 15.3-17.3 26.6-19.4l38.8-7.4c4.5-.9 8.9 2.1 9.8 6.6 2.5 12.5-4.6 24.8-16.7 28.9l-14 4.8c4.1-1.4 13.7 5.3 16.6 7.3 10.6 7.5 22.6 24.1 21.3 37.7-.4 4.6-2.8 8.8-5.8 12.3-4.6 5.2-10.7 10.1-17.3 12.4-6.4 2.2-13.3 2.4-20 1.3-3.9-.7-7.8-1.8-11.2-3.8-1.1-.7-2.3-1.6-3.3-2.5m197.7-79.1-31.8-59.9c-3.7-7.1-12.5-9.9-19.7-6.1-7.1 3.7-9.9 12.5-6.1 19.7l30.1 57.2c1.2 10.3 2.8 25.2 4.6 41.2 3.3 29.3 14.3 47.8 14.3 47.8l4 35.4 102.7-11.4-4-35.4-.1-2.1-2.9-53.7-1-18-4-29.6z"/><path fill="#f9c9c0" d="M330.549 273.011c8.1-.9 13.9-8.3 12.8-16.4l-3.8-29.1c-.8-7.5-7.6-13-15.2-12.1-8.5.9-14.5 8.6-13.6 17l3.7 28c1.1 7.9 8.2 13.5 16.1 12.6m-57.901 6.501c8.1-.9 13.9-8.3 12.8-16.3l-4.1-31.6c-.8-7.5-7.6-13-15.2-12.1-8.5.9-14.5 8.6-13.6 17l3.9 30.4c1.2 7.8 8.3 13.5 16.2 12.6"/><path fill="#f9c9c0" d="M301.649 276.211c8.1-.9 13.8-8.2 12.8-16.3l-4.3-38.2c-.9-8-8.1-13.7-16.1-12.9-8 .9-13.7 8.1-12.9 16.1l4.4 38.6c1 8 8.2 13.6 16.1 12.7m46.6 64.3c17.6-7.4 30.5-21.9 38.1-40.5l15.2-37c1.9-4.5-.1-9.7-4.6-11.7-11.7-5.5-25.7-.3-30.9 11.5l-11.2 25.5s-17.2-5.1-35.1-1.3c-10.8 2.3-24.1 13.6-26.2 24.9-.5 2.6-.3 5.2.2 7.8 1.3 7.1 4.7 14 10.2 18.7 7.5 6.3 18.1 8 27.9 6.5 5.8-.7 11.3-2.3 16.4-4.4"/><path stroke="#121331" stroke-linecap="round" stroke-linejoin="round" stroke-miterlimit="10" stroke-width="10.5" d="m56.55 333.711-.5 7.4-4.6 35.3 102.499 13.4 4.6-35.3s11.4-18.3 15.2-47.6c1.4-10.5 2.7-20.5 3.8-29m-115.1-43.2-5-71.4c-.5-7.6 5.2-14.1 12.7-14.7h1.1c8 0 14.8 6.2 15.4 14.3l4.7 66.3m39.6-9 12.3-58.9c.3-1.1.4-2.2.4-3.3 0-6.6-4.6-12.6-11.3-14.2-7.8-1.8-15.7 3.1-17.5 10.9l-17.4 73.2"/><path stroke="#121331" stroke-linecap="round" stroke-linejoin="round" stroke-miterlimit="10" stroke-width="10.5" d="m121.248 266.111 4.9-37.2c1-7.5 7.9-12.8 15.4-11.8 8.4 1.1 14.4 8.8 13.3 17.3l-4.7 35.5c-1.1 8-8.5 13.7-16.5 12.5-7.9-1.1-13.4-8.4-12.4-16.3"/><path stroke="#121331" stroke-linecap="round" stroke-linejoin="round" stroke-miterlimit="10" stroke-width="10.5" d="M162.749 286.111c-8-.9-13.7-8.2-12.7-16.1l3.8-30.7c1-8 8.4-13.6 16.3-12.6 8 1 13.6 8.4 12.6 16.3l-4 30.6c-1 7.8-8.1 13.4-16 12.5m-106.2 47.6-23.7-41.3c-6.7-11.6-6.8-25.9-.4-37.7 5.5-10.1 15.3-17.3 26.6-19.4l38.8-7.4c4.5-.9 8.9 2.1 9.8 6.6 2.5 12.5-4.6 24.8-16.7 28.9l-14 4.8s32.3 4.8 38.7 45.9m111.8-49.4c1.2 10.3 2.8 25.2 4.6 41.2 3.3 29.3 14.3 47.8 14.3 47.8l4 35.4 102.7-11.4-4-35.4-.1-2.1m-2.9-53.7-.9-17.9-4-29.4-.1-.3m-86.1 14.9-31.8-59.9c-3.7-7.1-12.5-9.9-19.7-6.1-7.1 3.7-9.9 12.5-6.1 19.7l30.1 57.2"/><path stroke="#121331" stroke-linecap="round" stroke-linejoin="round" stroke-miterlimit="10" stroke-width="10.5" d="M330.549 273.011c8.1-.9 13.9-8.3 12.8-16.4l-3.8-29.1c-.8-7.5-7.6-13-15.2-12.1-8.5.9-14.5 8.6-13.6 17l3.7 28c1.1 7.9 8.2 13.5 16.1 12.6m-57.901 6.501c8.1-.9 13.9-8.3 12.8-16.3l-4.1-31.6c-.8-7.5-7.6-13-15.2-12.1-8.5.9-14.5 8.6-13.6 17l3.9 30.4c1.2 7.8 8.3 13.5 16.2 12.6"/><path stroke="#121331" stroke-linecap="round" stroke-linejoin="round" stroke-miterlimit="10" stroke-width="10.5" d="M301.649 276.211c8.1-.9 13.8-8.2 12.8-16.3l-4.3-38.2c-.9-8-8.1-13.7-16.1-12.9-8 .9-13.7 8.1-12.9 16.1l4.4 38.6c1 8 8.2 13.6 16.1 12.7m-8.6 35.3s8.9-20.6 26.7-24.4 35.1 1.3 35.1 1.3l11.2-25.5c5.2-11.9 19.2-17.1 30.9-11.5 4.4 2.1 6.4 7.2 4.6 11.7l-15.2 37c-7.3 17.7-20.8 32.2-38 40.6M232.19 169.848c9.436-18.208 19.135-25.099 33.11-33.11-12.954-6.92-25.205-16.746-33.11-33.11-11.11 21.213-22.851 26.062-33.11 33.11 20.596 9.798 28.253 25.367 33.11 33.11m55.379-72.93c3.322-6.193 8.388-13.048 17.27-17.27-4.709-2.534-13.352-7.998-17.27-17.27-5.52 10.961-12.375 14.24-17.27 17.27 4.399 1.838 13.538 8.792 17.27 17.27m-122.87-15.754c3.892-7.257 9.829-15.29 20.236-20.236-5.518-2.969-15.645-9.371-20.236-20.236-6.487 12.927-15.291 17.282-20.236 20.236 5.154 2.153 15.864 10.301 20.236 20.236"/></svg>