<svg xmlns="http://www.w3.org/2000/svg" width="430" height="430" fill="none" viewBox="0 0 430 430"><path fill="#ebe6ef" d="M215.005 374.62a96.4 96.4 0 0 1-70.01-30.156 96.37 96.37 0 0 1-26.2-71.584l8-143.31a79.64 79.64 0 0 1 79.52-75.19h17.38a79.64 79.64 0 0 1 79.51 75.19l8 143.31a96.35 96.35 0 0 1-26.194 71.584 96.35 96.35 0 0 1-70.006 30.156"/><path fill="#ebe6ef" d="M124.265 175.12c36.14 34.1 145.34 34.1 181.49 0l-2.55-45.55a79.64 79.64 0 0 0-79.51-75.19h-17.38a79.64 79.64 0 0 0-79.51 75.19z" opacity=".5" style="mix-blend-mode:multiply"/><path fill="#ebe6ef" d="M206.315 54.38a79.64 79.64 0 0 0-79.51 75.19l-2.54 45.55c18.07 17 54.4 25.57 90.74 25.57V54.38z" opacity=".5" style="mix-blend-mode:multiply"/><path fill="#ceddf5" d="M217.265 99.96h-2.51c-7.638 0-13.83 6.192-13.83 13.83v39.74c0 7.638 6.192 13.83 13.83 13.83h2.51c7.638 0 13.83-6.192 13.83-13.83v-39.74c0-7.638-6.192-13.83-13.83-13.83"/><path fill="#ebe6ef" d="m138.145 278.15 8.18-146.77a81.55 81.55 0 0 1 79-77h-19.01a79.64 79.64 0 0 0-79.51 75.19l-8.01 143.31a96.395 96.395 0 0 0 73.82 99.12 98.69 98.69 0 0 1-54.47-93.85" opacity=".5" style="mix-blend-mode:multiply"/><path fill="#ceddf5" d="M208.345 153.54v-39.75a13.82 13.82 0 0 1 11.37-13.6 14 14 0 0 0-2.45-.23h-2.52a13.83 13.83 0 0 0-13.82 13.83v39.75a13.8 13.8 0 0 0 4.048 9.772 13.83 13.83 0 0 0 9.772 4.048h2.52c.822 0 1.642-.077 2.45-.23a13.82 13.82 0 0 1-11.37-13.59" opacity=".5" style="mix-blend-mode:multiply"/><path stroke="#121331" stroke-linecap="round" stroke-linejoin="round" stroke-width="10.5" d="M215.005 374.62a96.4 96.4 0 0 1-70.01-30.156 96.37 96.37 0 0 1-26.2-71.584l8-143.3a79.65 79.65 0 0 1 79.52-75.2h17.38a79.64 79.64 0 0 1 79.51 75.2l8 143.3a96.35 96.35 0 0 1-26.194 71.584 96.35 96.35 0 0 1-70.006 30.156m0-274.65V54.38m0 146.31v-33.33"/><path stroke="#121331" stroke-linecap="round" stroke-linejoin="round" stroke-width="10.5" d="M305.755 175.12c-36.15 34.1-145.35 34.1-181.49 0m93-75.16h-2.51c-7.638 0-13.83 6.192-13.83 13.83v39.74c0 7.638 6.192 13.83 13.83 13.83h2.51c7.638 0 13.83-6.192 13.83-13.83v-39.74c0-7.638-6.192-13.83-13.83-13.83"/></svg>